<?xml version="1.0" encoding="UTF-8" standalone="no"?>
<svg
   xmlns:dc="http://purl.org/dc/elements/1.1/"
   xmlns:cc="http://creativecommons.org/ns#"
   xmlns:rdf="http://www.w3.org/1999/02/22-rdf-syntax-ns#"
   xmlns:svg="http://www.w3.org/2000/svg"
   xmlns="http://www.w3.org/2000/svg"
   xmlns:sodipodi="http://sodipodi.sourceforge.net/DTD/sodipodi-0.dtd"
   xmlns:inkscape="http://www.inkscape.org/namespaces/inkscape"
   width="1000"
   height="466"
   viewBox="0 0 264.583 123.296"
   version="1.1"
   id="svg14"
   sodipodi:docname="brand.svg"
   inkscape:version="0.92.3 (unknown)">
  <metadata
     id="metadata20">
    <rdf:RDF>
      <cc:Work
         rdf:about="">
        <dc:format>image/svg+xml</dc:format>
        <dc:type
           rdf:resource="http://purl.org/dc/dcmitype/StillImage" />
      </cc:Work>
    </rdf:RDF>
  </metadata>
  <defs
     id="defs18" />
  <sodipodi:namedview
     pagecolor="#ffffff"
     bordercolor="#666666"
     borderopacity="1"
     objecttolerance="10"
     gridtolerance="10"
     guidetolerance="10"
     inkscape:pageopacity="0"
     inkscape:pageshadow="2"
     inkscape:window-width="1062"
     inkscape:window-height="596"
     id="namedview16"
     showgrid="false"
     inkscape:zoom="0.346"
     inkscape:cx="524.56647"
     inkscape:cy="215.65896"
     inkscape:window-x="0"
     inkscape:window-y="0"
     inkscape:window-maximized="0"
     inkscape:current-layer="g12" />
  <g
     transform="translate(0 -173.704)"
     id="g12">
    <path
       fill="#1a237e"
       d="M0 173.704h264.583V297H0z"
       id="path2"
       style="fill:#3f51b5;fill-opacity:1" />
    <text
       style="line-height:1.25"
       x="154.214"
       y="176.804"
       font-weight="400"
       font-size="10.583"
       font-family="sans-serif"
       letter-spacing="0"
       word-spacing="0"
       stroke-width=".265"
       id="text6" />
    <g
       aria-label="Jobber"
       style="line-height:1.25;-inkscape-font-specification:'DejaVu Sans Mono Bold';text-align:center"
       font-weight="700"
       font-size="226.667"
       font-family="Comfortaa"
       letter-spacing="5.5"
       word-spacing="0"
       text-anchor="middle"
       fill="#e8eaf6"
       id="g10">
      <path
         d="M31.08 245.47q0 1.727.644 3.22.644 1.494 1.728 2.607 1.112 1.083 2.606 1.728 1.493.644 3.22.644 1.7 0 3.193-.644 1.493-.645 2.577-1.757 1.112-1.113 1.757-2.607.644-1.493.644-3.191v-29.342q0-1.289.908-2.197.908-.907 2.196-.907 1.288 0 2.196.907.908.908.908 2.197v29.342q0 2.957-1.142 5.593-1.142 2.606-3.104 4.568-1.933 1.962-4.568 3.104-2.606 1.142-5.564 1.142-2.987 0-5.622-1.142-2.607-1.142-4.569-3.104-1.932-1.991-3.074-4.598-1.142-2.606-1.142-5.563 0-1.289.907-2.197.908-.907 2.197-.907 1.288 0 2.196.907.908.908.908 2.197zM92.097 243.478q0 6.853-4.802 11.596-4.861 4.803-11.597 4.803-6.793 0-11.596-4.803-4.802-4.802-4.802-11.596 0-6.793 4.802-11.596 4.803-4.802 11.596-4.802 6.736 0 11.597 4.802 2.4 2.401 3.572 5.3 1.2 2.9 1.23 6.296zM75.698 233.2q-2.167 0-4.04.82-1.875.82-3.251 2.225-1.376 1.377-2.196 3.25-.791 1.875-.791 3.983 0 2.109.79 3.983.82 1.874 2.197 3.28 1.376 1.376 3.25 2.196 1.874.82 4.041.82 2.138 0 4.012-.82 1.874-.82 3.25-2.226 1.406-1.405 2.197-3.25.82-1.874.82-3.983 0-2.108-.82-3.953-.79-1.874-2.196-3.28-1.377-1.405-3.25-2.225-1.875-.82-4.013-.82zM114.636 253.757q2.138 0 4.012-.82 1.874-.82 3.25-2.226 1.406-1.405 2.197-3.25.82-1.874.82-3.983 0-2.108-.82-3.953-.79-1.874-2.197-3.28-1.376-1.405-3.25-2.225-1.874-.82-4.012-.82-2.167 0-4.04.82-1.875.82-3.251 2.225-1.377 1.377-2.197 3.25-.79 1.875-.79 3.983 0 2.109.79 3.983.82 1.874 2.197 3.28 1.376 1.376 3.25 2.196 1.874.82 4.041.82zm-10.278-23.046q4.363-3.631 10.278-3.631 6.735 0 11.596 4.802 2.402 2.372 3.602 5.3 1.2 2.9 1.2 6.296 0 6.853-4.802 11.596-4.86 4.803-11.596 4.803-6.793 0-11.596-4.803-4.802-4.802-4.802-11.596V216.07q0-1.318.849-2.167.878-.878 2.196-.878 1.289 0 2.167.878.908.85.908 2.167zM153.574 253.757q2.138 0 4.012-.82 1.874-.82 3.25-2.226 1.406-1.405 2.197-3.25.82-1.874.82-3.983 0-2.108-.82-3.953-.791-1.874-2.197-3.28-1.376-1.405-3.25-2.225-1.874-.82-4.012-.82-2.167 0-4.041.82-1.874.82-3.25 2.225-1.377 1.377-2.197 3.25-.79 1.875-.79 3.983 0 2.109.79 3.983.82 1.874 2.197 3.28 1.376 1.376 3.25 2.196 1.874.82 4.041.82zm-10.278-23.046q4.363-3.631 10.278-3.631 6.735 0 11.596 4.802 2.402 2.372 3.602 5.3 1.2 2.9 1.2 6.296 0 6.853-4.802 11.596-4.86 4.803-11.596 4.803-6.794 0-11.596-4.803-4.803-4.802-4.803-11.596V216.07q0-1.318.85-2.167.878-.878 2.196-.878 1.288 0 2.167.878.908.85.908 2.167zM202.38 240.433q-.497-1.61-1.493-2.929-.966-1.347-2.284-2.284-1.289-.966-2.87-1.493-1.552-.527-3.221-.527-1.67 0-3.25.527-1.582.527-2.9 1.493-1.317.937-2.284 2.284-.966 1.318-1.435 2.929zm-1.317 10.22q1.317 0 2.167.878.878.85.878 2.167 0 1.289-.878 2.196-4.54 3.983-10.718 3.983-6.794 0-11.596-4.803-4.803-4.802-4.803-11.596 0-6.793 4.803-11.596 4.802-4.802 11.596-4.802 6.735 0 11.596 4.802 2.401 2.372 3.602 5.3 1.2 2.9 1.2 6.296 0 1.318-.907 2.197-.879.849-2.167.849h-23.193q.498 1.61 1.465 2.957.966 1.318 2.254 2.284 1.318.938 2.87 1.465 1.582.527 3.28.527 1.933 0 3.543-.586t2.987-1.757q.879-.732 2.02-.761zM221.054 230.125v.586q2.196-1.757 4.773-2.694 2.577-.937 5.506-.937 1.288 0 2.752.175 1.494.176 2.724.645 1.259.439 2.079 1.23.82.79.82 2.05 0 .644-.264 1.2-.234.556-.644.996-.41.41-.966.644-.557.234-1.201.234-.556 0-1.289-.322-1.844-.732-4.011-.732-2.138 0-4.012.82-1.874.79-3.28 2.196-1.376 1.376-2.196 3.25-.79 1.875-.79 4.012v13.353q0 1.26-.909 2.167-.878.879-2.137.879-1.289 0-2.197-.879-.878-.907-.878-2.167v-26.706q0-1.26.878-2.138.908-.907 2.197-.907 1.259 0 2.137.907.908.879.908 2.138z"
         style="-inkscape-font-specification:'Comfortaa Bold';text-align:center"
         id="path8" />
    </g>
  </g>
</svg>
