<?xml version="1.0" encoding="UTF-8" standalone="no"?>
<!-- Created with Inkscape (http://www.inkscape.org/) -->

<svg
   xmlns:dc="http://purl.org/dc/elements/1.1/"
   xmlns:cc="http://creativecommons.org/ns#"
   xmlns:rdf="http://www.w3.org/1999/02/22-rdf-syntax-ns#"
   xmlns:svg="http://www.w3.org/2000/svg"
   xmlns="http://www.w3.org/2000/svg"
   xmlns:sodipodi="http://sodipodi.sourceforge.net/DTD/sodipodi-0.dtd"
   xmlns:inkscape="http://www.inkscape.org/namespaces/inkscape"
   width="1000"
   height="1000"
   viewBox="0 0 264.58333 264.58333"
   version="1.1"
   id="svg8"
   inkscape:version="0.92.2 (unknown)"
   sodipodi:docname="logo_websafe.svg"
   inkscape:export-filename="/home/deejaytee/data/programming/projects/180310-jobber/logo.png"
   inkscape:export-xdpi="96"
   inkscape:export-ydpi="96">
  <defs
     id="defs2" />
  <sodipodi:namedview
     id="base"
     pagecolor="#ffffff"
     bordercolor="#666666"
     borderopacity="1.0"
     inkscape:pageopacity="1"
     inkscape:pageshadow="2"
     inkscape:zoom="0.5"
     inkscape:cx="317.14286"
     inkscape:cy="522"
     inkscape:document-units="px"
     inkscape:current-layer="flowRoot4542"
     showgrid="false"
     units="px"
     inkscape:object-nodes="false"
     inkscape:window-width="1920"
     inkscape:window-height="1037"
     inkscape:window-x="1366"
     inkscape:window-y="0"
     inkscape:window-maximized="1" />
  <metadata
     id="metadata5">
    <rdf:RDF>
      <cc:Work
         rdf:about="">
        <dc:format>image/svg+xml</dc:format>
        <dc:type
           rdf:resource="http://purl.org/dc/dcmitype/StillImage" />
        <dc:title></dc:title>
      </cc:Work>
    </rdf:RDF>
  </metadata>
  <g
     inkscape:label="Layer 1"
     inkscape:groupmode="layer"
     id="layer1"
     transform="translate(0,-32.416671)">
    <rect
       style="fill:#1a237e;fill-opacity:1;stroke-width:0.26458332"
       id="rect4699"
       width="264.58334"
       height="264.58334"
       x="0"
       y="32.416672" />
    <rect
       style="fill:#3f51b5;fill-opacity:1;stroke-width:0.26953468"
       id="rect3707"
       width="247.12083"
       height="105.83333"
       x="8.7312498"
       y="111.79167"
       rx="8.237361"
       ry="7.9375" />
    <flowRoot
       xml:space="preserve"
       id="flowRoot4514"
       style="fill:black;fill-opacity:1;stroke:none;font-family:monospace;font-style:normal;font-weight:bold;font-size:40px;line-height:1.25;letter-spacing:0px;word-spacing:0px;-inkscape-font-specification:'monospace Bold';font-stretch:normal;font-variant:normal;"><flowRegion
         id="flowRegion4516"
         style="-inkscape-font-specification:'monospace Bold';font-family:monospace;font-weight:bold;font-style:normal;font-stretch:normal;font-variant:normal;"><rect
           id="rect4518"
           width="737.14288"
           height="277.14285"
           x="120"
           y="360"
           style="-inkscape-font-specification:'monospace Bold';font-family:monospace;font-weight:bold;font-style:normal;font-stretch:normal;font-variant:normal;" /></flowRegion><flowPara
         id="flowPara4520" /></flowRoot>    <text
       xml:space="preserve"
       style="font-style:normal;font-weight:normal;font-size:10.58333302px;line-height:1.25;font-family:sans-serif;letter-spacing:0px;word-spacing:0px;fill:#000000;fill-opacity:1;stroke:none;stroke-width:0.26458332"
       x="154.21428"
       y="176.80357"
       id="text4524"><tspan
         sodipodi:role="line"
         id="tspan4522"
         x="154.21428"
         y="186.16734"
         style="stroke-width:0.26458332" /></text>
    <flowRoot
       xml:space="preserve"
       id="flowRoot4534"
       style="font-style:normal;font-variant:normal;font-weight:bold;font-stretch:normal;font-size:40px;line-height:1.25;font-family:monospace;-inkscape-font-specification:'monospace Bold';letter-spacing:0px;word-spacing:0px;fill:#000000;fill-opacity:1;stroke:none"
       transform="matrix(0.26458333,0,0,0.26458333,0,32.416671)"><flowRegion
         id="flowRegion4536"><rect
           id="rect4538"
           width="797.14288"
           height="265.71429"
           x="102.85714"
           y="357.14285" /></flowRegion><flowPara
         id="flowPara4540"
         style="font-style:normal;font-variant:normal;font-weight:bold;font-stretch:normal;font-size:192px;font-family:monospace;-inkscape-font-specification:'monospace Bold';fill:#e8eaf6;fill-opacity:1">Jobbber</flowPara></flowRoot>    <g
       aria-label="Jobber"
       transform="matrix(0.26458333,0,0,0.26458333,-0.52916666,56.229186)"
       style="font-style:normal;font-variant:normal;font-weight:bold;font-stretch:normal;font-size:226.66667175px;line-height:1.25;font-family:'DejaVu Sans Mono';-inkscape-font-specification:'DejaVu Sans Mono Bold';text-align:center;letter-spacing:0px;word-spacing:0px;text-anchor:middle;fill:#e8eaf6;fill-opacity:1;stroke:none"
       id="flowRoot4542">
      <path
         d="m 119.46614,448.23919 q 0,6.52994 2.43489,12.17448 2.4349,5.64453 6.52995,9.85026 4.20573,4.09505 9.85026,6.52994 5.64453,2.4349 12.17448,2.4349 6.41927,0 12.0638,-2.4349 5.64454,-2.43489 9.73959,-6.64062 4.20573,-4.20573 6.64062,-9.85026 2.4349,-5.64453 2.4349,-12.0638 V 337.34075 q 0,-4.8698 3.43099,-8.30079 3.43099,-3.43099 8.30078,-3.43099 4.86979,0 8.30078,3.43099 3.43099,3.43099 3.43099,8.30079 v 110.89844 q 0,11.17838 -4.31641,21.13932 -4.3164,9.85026 -11.73177,17.26562 -7.30468,7.41537 -17.26562,11.73178 -9.85026,4.3164 -21.02865,4.3164 -11.28906,0 -21.25,-4.3164 -9.85026,-4.31641 -17.26562,-11.73178 -7.30469,-7.52604 -11.6211,-17.3763 -4.316405,-9.85026 -4.316405,-21.02864 0,-4.8698 3.43099,-8.30079 3.430985,-3.43099 8.300785,-3.43099 4.86979,0 8.30078,3.43099 3.43099,3.43099 3.43099,8.30079 z"
         style="font-style:normal;font-variant:normal;font-weight:bold;font-stretch:normal;font-size:226.66667175px;font-family:Comfortaa;-inkscape-font-specification:'Comfortaa Bold';text-align:center;letter-spacing:5.5px;text-anchor:middle;fill:#e8eaf6;fill-opacity:1"
         id="path832" />
      <path
         d="m 350.08334,440.71314 q 0,25.89844 -18.15104,43.82813 -18.3724,18.15104 -43.82813,18.15104 -25.67708,0 -43.82813,-18.15104 -18.15104,-18.15104 -18.15104,-43.82813 0,-25.67708 18.15104,-43.82812 18.15105,-18.15104 43.82813,-18.15104 25.45573,0 43.82813,18.15104 9.07552,9.07552 13.5026,20.03255 4.53776,10.95703 4.64844,23.79557 z m -61.97917,-38.84765 q -8.1901,0 -15.27344,3.09896 -7.08333,3.09895 -12.28515,8.41145 -5.20183,5.20183 -8.30079,12.28516 -2.98828,7.08333 -2.98828,15.05208 0,7.96875 2.98828,15.05209 3.09896,7.08333 8.30079,12.39583 5.20182,5.20182 12.28515,8.30078 7.08334,3.09896 15.27344,3.09896 8.07943,0 15.16276,-3.09896 7.08333,-3.09896 12.28516,-8.41146 5.3125,-5.3125 8.30078,-12.28515 3.09896,-7.08334 3.09896,-15.05209 0,-7.96875 -3.09896,-14.9414 -2.98828,-7.08334 -8.30078,-12.39584 -5.20183,-5.3125 -12.28516,-8.41145 -7.08333,-3.09896 -15.16276,-3.09896 z"
         style="font-style:normal;font-variant:normal;font-weight:bold;font-stretch:normal;font-size:226.66667175px;font-family:Comfortaa;-inkscape-font-specification:'Comfortaa Bold';text-align:center;letter-spacing:5.5px;text-anchor:middle;fill:#e8eaf6;fill-opacity:1"
         id="path834" />
      <path
         d="m 435.27083,479.5608 q 8.07942,0 15.16276,-3.09896 7.08333,-3.09896 12.28515,-8.41146 5.3125,-5.3125 8.30078,-12.28515 3.09896,-7.08334 3.09896,-15.05209 0,-7.96875 -3.09896,-14.9414 -2.98828,-7.08334 -8.30078,-12.39584 -5.20182,-5.3125 -12.28515,-8.41145 -7.08334,-3.09896 -15.16276,-3.09896 -8.19011,0 -15.27344,3.09896 -7.08334,3.09895 -12.28516,8.41145 -5.20182,5.20183 -8.30078,12.28516 -2.98828,7.08333 -2.98828,15.05208 0,7.96875 2.98828,15.05209 3.09896,7.08333 8.30078,12.39583 5.20182,5.20182 12.28516,8.30078 7.08333,3.09896 15.27344,3.09896 z m -38.84766,-87.10287 q 16.49088,-13.72395 38.84766,-13.72395 25.45573,0 43.82812,18.15104 9.07552,8.96484 13.61328,20.03255 4.53776,10.95703 4.53776,23.79557 0,25.89844 -18.15104,43.82813 -18.37239,18.15104 -43.82812,18.15104 -25.67709,0 -43.82813,-18.15104 -18.15104,-18.15104 -18.15104,-43.82813 V 337.11939 q 0,-4.98047 3.20963,-8.1901 3.32032,-3.32032 8.30078,-3.32032 4.8698,0 8.19011,3.32032 3.43099,3.20963 3.43099,8.1901 z"
         style="font-style:normal;font-variant:normal;font-weight:bold;font-stretch:normal;font-size:226.66667175px;font-family:Comfortaa;-inkscape-font-specification:'Comfortaa Bold';text-align:center;letter-spacing:5.5px;text-anchor:middle;fill:#e8eaf6;fill-opacity:1"
         id="path836" />
      <path
         d="m 582.43751,479.5608 q 8.07943,0 15.16276,-3.09896 7.08334,-3.09896 12.28516,-8.41146 5.3125,-5.3125 8.30078,-12.28515 3.09896,-7.08334 3.09896,-15.05209 0,-7.96875 -3.09896,-14.9414 -2.98828,-7.08334 -8.30078,-12.39584 -5.20182,-5.3125 -12.28516,-8.41145 -7.08333,-3.09896 -15.16276,-3.09896 -8.1901,0 -15.27343,3.09896 -7.08334,3.09895 -12.28516,8.41145 -5.20182,5.20183 -8.30078,12.28516 -2.98828,7.08333 -2.98828,15.05208 0,7.96875 2.98828,15.05209 3.09896,7.08333 8.30078,12.39583 5.20182,5.20182 12.28516,8.30078 7.08333,3.09896 15.27343,3.09896 z m -38.84765,-87.10287 q 16.49088,-13.72395 38.84765,-13.72395 25.45573,0 43.82813,18.15104 9.07552,8.96484 13.61328,20.03255 4.53776,10.95703 4.53776,23.79557 0,25.89844 -18.15104,43.82813 -18.3724,18.15104 -43.82813,18.15104 -25.67708,0 -43.82812,-18.15104 -18.15105,-18.15104 -18.15105,-43.82813 V 337.11939 q 0,-4.98047 3.20964,-8.1901 3.32031,-3.32032 8.30078,-3.32032 4.86979,0 8.19011,3.32032 3.43099,3.20963 3.43099,8.1901 z"
         style="font-style:normal;font-variant:normal;font-weight:bold;font-stretch:normal;font-size:226.66667175px;font-family:Comfortaa;-inkscape-font-specification:'Comfortaa Bold';text-align:center;letter-spacing:5.5px;text-anchor:middle;fill:#e8eaf6;fill-opacity:1"
         id="path838" />
      <path
         d="m 766.90238,429.20273 q -1.88151,-6.08724 -5.64453,-11.06771 -3.65235,-5.09115 -8.63282,-8.63281 -4.86979,-3.65235 -10.84635,-5.64454 -5.86589,-1.99218 -12.17448,-1.99218 -6.30859,0 -12.28516,1.99218 -5.97656,1.99219 -10.95703,5.64454 -4.98047,3.54166 -8.63281,8.63281 -3.65234,4.98047 -5.42318,11.06771 z m -4.98047,38.6263 q 4.98047,0 8.1901,3.32031 3.32032,3.20964 3.32032,8.19011 0,4.86979 -3.32032,8.30078 -17.15494,15.05208 -40.50781,15.05208 -25.67708,0 -43.82813,-18.15104 -18.15104,-18.15104 -18.15104,-43.82813 0,-25.67708 18.15104,-43.82812 18.15105,-18.15104 43.82813,-18.15104 25.45573,0 43.82813,18.15104 9.07552,8.96484 13.61328,20.03255 4.53776,10.95703 4.53776,23.79557 0,4.98047 -3.43099,8.30079 -3.32031,3.20963 -8.19011,3.20963 h -87.65625 q 1.88151,6.08724 5.53386,11.17839 3.65234,4.98047 8.52213,8.63281 4.98047,3.54167 10.84636,5.53385 5.97656,1.99219 12.39583,1.99219 7.30469,0 13.39193,-2.21354 6.08724,-2.21354 11.28906,-6.64063 3.32031,-2.76692 7.63672,-2.8776 z"
         style="font-style:normal;font-variant:normal;font-weight:bold;font-stretch:normal;font-size:226.66667175px;font-family:Comfortaa;-inkscape-font-specification:'Comfortaa Bold';text-align:center;letter-spacing:5.5px;text-anchor:middle;fill:#e8eaf6;fill-opacity:1"
         id="path840" />
      <path
         d="m 837.48046,390.24439 v 2.21354 q 8.30078,-6.64062 18.04037,-10.18229 9.73958,-3.54166 20.80729,-3.54166 4.86979,0 10.40364,0.66406 5.64454,0.66406 10.29297,2.43489 4.75912,1.66016 7.85808,4.64844 3.09895,2.98828 3.09895,7.7474 0,2.43489 -0.99609,4.53776 -0.88542,2.10286 -2.4349,3.76302 -1.54947,1.54948 -3.65234,2.4349 -2.10286,0.88541 -4.53776,0.88541 -2.10286,0 -4.86979,-1.21745 -6.97266,-2.76692 -15.16276,-2.76692 -8.07943,0 -15.16276,3.09896 -7.08334,2.98828 -12.39584,8.30078 -5.20182,5.20182 -8.30078,12.28515 -2.98828,7.08334 -2.98828,15.16276 v 50.46876 q 0,4.75911 -3.43099,8.1901 -3.32031,3.32031 -8.07943,3.32031 -4.86979,0 -8.30078,-3.32031 -3.32031,-3.43099 -3.32031,-8.1901 V 390.24439 q 0,-4.75911 3.32031,-8.07942 3.43099,-3.43099 8.30078,-3.43099 4.75912,0 8.07943,3.43099 3.43099,3.32031 3.43099,8.07942 z"
         style="font-style:normal;font-variant:normal;font-weight:bold;font-stretch:normal;font-size:226.66667175px;font-family:Comfortaa;-inkscape-font-specification:'Comfortaa Bold';text-align:center;letter-spacing:5.5px;text-anchor:middle;fill:#e8eaf6;fill-opacity:1"
         id="path842" />
    </g>
    <rect
       style="fill:#8c9eff;fill-opacity:1;stroke-width:0.26953468"
       id="rect4556"
       width="247.12083"
       height="26.458332"
       x="8.7312498"
       y="226.62083"
       rx="8.237361"
       ry="7.9375" />
    <rect
       style="fill:#8c9eff;fill-opacity:1;stroke-width:0.26953468"
       id="rect4556-9"
       width="247.12083"
       height="26.458332"
       x="8.7312498"
       y="261.81042"
       rx="8.237361"
       ry="7.9375" />
    <rect
       style="fill:#8c9eff;fill-opacity:1;stroke-width:0.26953468"
       id="rect4556-5"
       width="247.12083"
       height="26.458332"
       x="8.7312498"
       y="76.602089"
       rx="8.237361"
       ry="7.9375" />
    <rect
       style="fill:#8c9eff;fill-opacity:1;stroke-width:0.26953468"
       id="rect4556-5-8"
       width="247.12083"
       height="26.458332"
       x="8.7312498"
       y="41.412506"
       rx="8.237361"
       ry="7.9375" />
  </g>
</svg>
