<svg version="1" xmlns="http://www.w3.org/2000/svg" width="1333.333" height="1333.333" viewBox="0 0 1000.000000 1000.000000"><path d="M0 500v500h1000V0H0v500zM914.4 36.9c6.5 3.3 11.3 8.2 14.5 15l2.6 5.6v53l-2.6 5.6c-3.2 6.8-8 11.7-14.5 15l-4.9 2.4h-821l-4.7-2.3c-6.4-3.2-11.6-8.5-14.7-15.1-2.6-5.6-2.6-5.6-2.6-32.1s0-26.5 2.6-32.1c4.3-9.2 12.2-15.4 21.4-17 2.2-.3 187.4-.6 411.5-.5l407.5.1 4.9 2.4zm0 133c6.5 3.3 11.3 8.2 14.5 15l2.6 5.6v53l-2.6 5.6c-3.2 6.8-8 11.7-14.5 15l-4.9 2.4h-821l-4.7-2.3c-6.4-3.2-11.6-8.5-14.7-15.1-2.6-5.6-2.6-5.6-2.6-32.1s0-26.5 2.6-32.1c4.3-9.2 12.2-15.4 21.4-17 2.2-.3 187.4-.6 411.5-.5l407.5.1 4.9 2.4zM197.7 417.7c5.3 3.5 5.3 3.5 5.3 66.5 0 65.2-.2 66.6-6.7 79.1-12.8 24.2-41.8 35.5-67.1 25.9-17.3-6.6-31.5-24.1-34.3-42.3-.7-4.1-.9-9.1-.5-11.1 1.6-8.6 13.2-12 19.5-5.8 2.3 2.4 3.1 4.2 3.6 8.8 1.5 13.1 6.9 21.7 16.9 27 4.4 2.3 6.3 2.7 14.1 2.7 8.1 0 9.5-.3 14.3-2.9 6-3.3 10.1-7.6 13.4-13.9 2.3-4.2 2.3-4.2 2.8-66.3.5-66.4.3-63.2 5.5-67.6 2.6-2.3 9.8-2.3 13.2-.1zm190.6-.6c5.6 2.9 5.7 2.9 5.7 35.1 0 16.4.3 29.8.6 29.8s2-1.1 3.7-2.4c5.1-3.8 13.2-7.5 19.9-9.1 8.2-1.9 22.8-1.9 30.3 0 19.3 4.9 37 21.1 43.5 39.6 3 8.9 3.8 25.8 1.6 35.3-4.4 18.8-19.9 36.3-38.2 43.2-18.4 6.9-39.2 4.8-55.1-5.5-12-7.8-22-20.5-26.5-34.1-2.2-6.3-2.2-8-2.6-64-.2-39.7 0-58.6.8-61.2.6-2 2.2-4.6 3.7-5.7 2.9-2.3 9.1-2.8 12.6-1zm148.8.9c1.6 1.2 3.3 3.6 3.9 5.8.5 2.1 1 15.3 1 30.9v27.2l5-3.4c5.5-3.7 13.7-7 21.3-8.7 7.7-1.6 25-.5 32.6 2.2 8.4 3 19.8 10.8 26 17.7 10.3 11.5 15.1 24.6 15.1 41.3 0 18.2-4.9 29.9-18 43-13.2 13.3-25.6 18.5-44 18.3-18.2-.1-29.7-5-43.1-18.3-6.1-6.1-9.5-10.4-11.8-15-6.5-13.4-6.4-12.1-6.8-73-.3-30.5-.2-57.4.2-59.9 1-6.5 4.9-10.1 11-10.1 3.1 0 5.7.7 7.6 2zm-236.3 52.5c13 3.1 25 10.9 34 22.2 14.9 18.5 17.3 46.1 6 67.6-6.9 13.2-22.8 25.7-38.3 30.3-8.1 2.4-24.8 2.4-32.9 0-31.9-9.4-50.9-40.8-44.1-73.1 2.5-11.9 7.6-20.8 17.4-30.5 9.3-9.2 17.2-13.9 27.8-16.4 7.7-1.9 22.3-1.9 30.1-.1zm441.7 0c24.9 6.3 43.3 27.1 46.4 52.4 1 8.1.9 9.5-1.2 13.9-2.5 5.1-3.2 5.2-51.8 5.2h-45.1l.6 2.7c1.2 4.8 7.7 13.3 13.5 17.4 6.8 4.9 14.5 7.2 23.6 7.1 8.3-.1 13.9-1.9 22.1-7.2 8-5.3 12.2-5.4 17-.6 2.9 2.9 3.4 4.1 3.4 8.2 0 4.3-.4 5.1-4.5 9-9.5 9.1-28.3 15.2-43 13.9-17.2-1.6-27.6-6.4-39.5-18.4-13-13.1-18-25-18-42.8 0-12 1.3-18 6.2-28.1 7.2-15.2 23.2-28.3 39.8-32.6 7.3-2 23.1-2 30.5-.1zm88.4 1.1c1.7 1.4 3.5 4.2 4.1 6.4l1 3.9 4.5-3c10-6.8 20.9-9.9 34.5-9.9 20.7 0 32.6 6.8 30.6 17.4-.8 4.1-4.7 8.2-8.6 9.1-1.7.4-5.6-.2-10-1.6-9.5-2.8-20.3-2.3-28.4 1.4-7.4 3.4-15.5 11.3-19.2 18.4l-2.9 5.8-.5 32.7c-.5 31.1-.6 32.8-2.6 35.5-1.1 1.5-3.9 3.4-6.1 4.2-3.6 1.3-4.3 1.2-7.9-.5-7.6-3.7-7.4-2.2-7.4-60.7 0-45.9.2-52.3 1.6-55.3 3.2-6.6 11.7-8.5 17.3-3.8zm83.5 265.3c6.5 3.3 11.3 8.2 14.5 15l2.6 5.6v53l-2.6 5.6c-3.2 6.8-8 11.7-14.5 15l-4.9 2.4h-821l-4.7-2.3c-6.4-3.2-11.6-8.5-14.7-15.1-2.6-5.6-2.6-5.6-2.6-32.1s0-26.5 2.6-32.1c4.3-9.2 12.2-15.4 21.4-17 2.2-.3 187.4-.6 411.5-.5l407.5.1 4.9 2.4zm0 133c6.5 3.3 11.3 8.2 14.5 15l2.6 5.6v53l-2.6 5.6c-3.2 6.8-8 11.7-14.5 15l-4.9 2.4h-821l-4.7-2.3c-6.4-3.2-11.6-8.5-14.7-15.1-2.6-5.6-2.6-5.6-2.6-32.1s0-26.5 2.6-32.1c4.3-9.2 12.2-15.4 21.4-17 2.2-.3 187.4-.6 411.5-.5l407.5.1 4.9 2.4z"/><path d="M422.3 493.4c-22.9 7.5-34.1 33.1-23.7 54.4 14.1 28.8 55.5 28.4 69.7-.7 2.9-6 3.2-7.5 3.2-16.1 0-8.6-.3-10.1-3.2-16.2-6.4-13.7-18.9-21.9-33.8-22.5-4.9-.2-9.6.2-12.2 1.1zM569.9 493.4c-10.3 2.7-19.9 11.1-24.7 21.4-2.4 5-2.7 6.9-2.7 16.2 0 9.5.3 11.1 2.9 16.3 11.9 24.4 44.5 29.5 62.9 9.8 16-17.1 13.8-43.2-4.8-57.3-9-6.9-22.5-9.4-33.6-6.4zM275.5 493.3c-19.4 6.5-31.2 25.3-27.5 44 5 25.9 31.9 39.4 55.5 27.8 16.3-8 24.9-27.6 19.7-44.7-5.1-16.9-18.6-27.4-35.7-28.1-4.8-.2-9.6.2-12 1zM715.8 493.9c-7.4 2.4-11.6 5.1-16.7 10.6-4.1 4.5-9 13-7.9 14 .3.3 16.9.4 37 .3l36.6-.3-2.1-4.5c-3.3-7.1-13.1-16.2-20.2-19-8.2-3.1-19.2-3.6-26.7-1.1z"/></svg>